<?xml version="1.0" encoding="utf-8"?>
<!-- Generator: Adobe Illustrator 22.0.1, SVG Export Plug-In . SVG Version: 6.00 Build 0)  -->
<svg version="1.1" id="Layer_1" xmlns="http://www.w3.org/2000/svg" xmlns:xlink="http://www.w3.org/1999/xlink" x="0px" y="0px"
	 viewBox="0 0 88.7 82.8" style="enable-background:new 0 0 88.7 82.8;" xml:space="preserve">
<style type="text/css">
	.st0{fill:#292B76;}
	.st1{fill:#C7C8C9;}
</style>
<g>
	<polygon class="st0" points="43.4,3.7 2.7,79.5 26.2,79.5 30.3,72.3 56.1,72.3 60,79.5 84.1,79.5 	"/>
	<path class="st1" d="M39.2,34.1c23.7-0.4,42.1,19.1,44.9,43.4c0.1,0.6,0,1.2,0,1.7c0.3-2,0.4-4.1,0.4-6.1c0-24-18.6-44-43.2-43.6
		c-20,0.3-31.6,11.8-37.4,20.2C14.5,40.2,22.7,34.4,39.2,34.1z"/>
	<path class="st1" d="M39.7,44.4C56.8,44.5,71.9,59,74,77.5c0.1,0.4,0,0.9,0,1.3c0.2-1.5,0.3-3.1,0.3-4.7c0-18.3-15.4-33.3-33-33.3
		c-15.3,0-25.2,9.3-29.5,16.3C19.9,49.8,27.1,44.3,39.7,44.4z"/>
	<path class="st1" d="M39.2,54.1c12.2,0.1,23,10,24.6,22.6c0,0.3,0,0.6,0,0.9c0.2-1,0.2-2.1,0.2-3.2c0-12.5-11-22.7-23.6-22.7
		c-11,0-18.1,6.4-21.2,11.1C25,57.8,30.2,54,39.2,54.1z"/>
</g>
</svg>
