<?xml version="1.0" encoding="utf-8"?>
<!-- Generator: Adobe Illustrator 22.0.1, SVG Export Plug-In . SVG Version: 6.00 Build 0)  -->
<svg version="1.1" id="Capa_1" xmlns="http://www.w3.org/2000/svg" xmlns:xlink="http://www.w3.org/1999/xlink" x="0px" y="0px"
	 viewBox="0 0 632.3 370.7" style="enable-background:new 0 0 632.3 370.7;" xml:space="preserve">
<style type="text/css">
	.st0{fill:#C6E2ED;}
	.st1{fill:#E6E6E7;}
	.st2{fill:#8BB8DC;}
	.st3{fill:#A0CFE6;}
	.st4{fill:#629ABF;}
	.st5{fill:#F0F1F1;}
	.st6{fill:#C3DFED;}
	.st7{fill:#78ABCE;}
	.st8{fill:#BE1E2C;}
	.st9{fill:#F7CF9C;}
	.st10{fill:#221F1F;}
	.st11{fill:#81B2D3;}
	.st12{fill:#FFFFFF;}
	.st13{fill:#D0D2D3;}
	.st14{fill:#57585A;}
	.st15{fill:#929597;}
	.st16{fill:#343444;}
	.st17{fill:#D34A4A;}
	.st18{fill:#3D3D77;}
	.st19{fill:#FFBA7F;}
	.st20{fill:#262260;}
	.st21{fill:#EA5E5E;}
	.st22{fill:#BBBDBF;}
	.st23{fill:#3B2314;}
	.st24{fill:#D15C58;}
	.st25{fill:#F88976;}
	.st26{fill:#F69D5E;}
	.st27{fill:none;stroke:#221F1F;stroke-width:2.5125;stroke-miterlimit:10;}
	.st28{fill:none;stroke:#221F1F;stroke-width:5.4304;stroke-linecap:round;stroke-miterlimit:10;}
	.st29{fill:none;stroke:#221F1F;stroke-width:4.9103;stroke-miterlimit:10;}
	.st30{fill:none;stroke:#221F1F;stroke-width:5.4511;stroke-linecap:round;stroke-miterlimit:10;}
	.st31{fill:none;stroke:#221F1F;stroke-width:4.5372;stroke-linecap:square;stroke-miterlimit:10;}
	.st32{fill:#744C29;}
	.st33{fill:#4B4B70;}
	.st34{fill:#5A5A7A;}
	.st35{fill:#E20707;}
</style>
<rect class="st0" width="633" height="370.4"/>
<g>
	<path class="st1" d="M542.1,131.9c-0.7,0-1.3,0.8-1.3,1.7c0,1,0.6,1.7,1.3,1.7c0.7,0,1.3-0.8,1.3-1.7
		C543.4,132.7,542.8,131.9,542.1,131.9z"/>
	<path class="st2" d="M542.1,132.7c-0.4,0-0.7,0.4-0.7,0.9c0,0.5,0.3,0.9,0.7,0.9c0.4,0,0.7-0.4,0.7-0.9
		C542.8,133.1,542.5,132.7,542.1,132.7z"/>
</g>
<g>
	<path class="st1" d="M591.2,77.3c-0.7,0-1.3,0.8-1.3,1.7c0,1,0.6,1.7,1.3,1.7c0.7,0,1.3-0.8,1.3-1.7
		C592.5,78.1,591.9,77.3,591.2,77.3z"/>
	<path class="st2" d="M591.2,78.1c-0.4,0-0.7,0.4-0.7,0.9c0,0.5,0.3,0.9,0.7,0.9c0.4,0,0.7-0.4,0.7-0.9
		C591.9,78.5,591.6,78.1,591.2,78.1z"/>
</g>
<g>
	<path class="st1" d="M542.1,77.3c-0.7,0-1.3,0.8-1.3,1.7c0,1,0.6,1.7,1.3,1.7c0.7,0,1.3-0.8,1.3-1.7
		C543.4,78.1,542.8,77.3,542.1,77.3z"/>
	<path class="st2" d="M542.1,78.1c-0.4,0-0.7,0.4-0.7,0.9c0,0.5,0.3,0.9,0.7,0.9c0.4,0,0.7-0.4,0.7-0.9
		C542.8,78.5,542.5,78.1,542.1,78.1z"/>
</g>
<rect y="317.5" class="st3" width="632.4" height="10.4"/>
<rect y="327.8" class="st4" width="632.4" height="42.1"/>
<g>
	<rect x="524.9" y="80" class="st2" width="34.4" height="45.3"/>
	<rect x="527.3" y="83.2" class="st5" width="29.6" height="39"/>
</g>
<rect x="565.9" y="80" class="st2" width="50.4" height="99.1"/>
<rect x="568.3" y="83" class="st5" width="45.7" height="93.2"/>
<g>
	<rect x="524.9" y="134.7" class="st2" width="34.3" height="45.3"/>
	<rect x="527.3" y="137.8" class="st5" width="29.6" height="39"/>
</g>
<path class="st6" d="M591.2,93.1c-8.1,0-14.6,2.5-14.6,5.7c0,3.1,6.6,5.7,14.6,5.7c8.1,0,14.6-2.5,14.6-5.7
	C605.8,95.6,599.3,93.1,591.2,93.1z"/>
<g>
	<rect x="571.4" y="115.8" class="st6" width="17.7" height="1.8"/>
	<rect x="571.4" y="119.6" class="st6" width="17.7" height="1.8"/>
	<rect x="571.4" y="123.3" class="st6" width="17.7" height="1.8"/>
	<rect x="571.4" y="127.1" class="st6" width="17.7" height="1.8"/>
	<rect x="571.4" y="130.9" class="st6" width="17.7" height="1.8"/>
	<rect x="571.4" y="134.7" class="st6" width="17.7" height="1.8"/>
</g>
<g>
	<rect x="571.4" y="142.5" class="st6" width="17.7" height="1.8"/>
	<rect x="571.4" y="146.3" class="st6" width="17.7" height="1.8"/>
	<rect x="571.4" y="150.1" class="st6" width="17.7" height="1.8"/>
	<rect x="571.4" y="153.9" class="st6" width="17.7" height="1.8"/>
	<rect x="571.4" y="157.7" class="st6" width="17.7" height="1.8"/>
	<rect x="571.4" y="161.4" class="st6" width="17.7" height="1.8"/>
</g>
<g>
	<rect x="593.6" y="115.8" class="st6" width="17.7" height="1.8"/>
	<rect x="593.6" y="119.6" class="st6" width="17.7" height="1.8"/>
	<rect x="593.6" y="123.3" class="st6" width="17.7" height="1.8"/>
	<rect x="593.6" y="127.1" class="st6" width="17.7" height="1.8"/>
	<rect x="593.6" y="130.9" class="st6" width="17.7" height="1.8"/>
	<rect x="593.6" y="134.7" class="st6" width="17.7" height="1.8"/>
</g>
<g>
	<polygon class="st2" points="598,171 602.8,167.3 607.7,171 607.7,151.1 598,151.1 	"/>
	<ellipse class="st3" cx="602.8" cy="151.1" rx="6.7" ry="8.9"/>
	<path class="st2" d="M602.8,144.8c-2.7,0-4.8,2.9-4.8,6.4c0,3.5,2.2,6.4,4.8,6.4c2.7,0,4.8-2.9,4.8-6.4
		C607.7,147.6,605.5,144.8,602.8,144.8z"/>
</g>
<path class="st3" d="M547.6,93.3c-2.5-1.5-3.3,0.5-3.7,0c-1-1.1-0.1-1.8,0.6-3.6c0.4-0.9,1.2-1.7,1-2.1c-0.3-0.5-1-1.2-1-1.2
	l-1.9,3.1c0,0-2.8,4.1-3,10.1c-0.1,5.9-2,7.2-4.5,10.2c-2.4,3-2.3,6.8-2.2,8.4c0.1,1.2,1.9,0.2,1.9,0.2s-1.1-3.8,0.8-5.6
	c1.9-1.9,5.2,4.4,9.9,0.6C550.9,109.2,553.5,96.8,547.6,93.3z"/>
<path class="st2" d="M544.4,106.2c-1,0-1.8,1.1-1.8,2.4c0,1.3,0.8,2.4,1.8,2.4s1.8-1.1,1.8-2.4C546.2,107.2,545.4,106.2,544.4,106.2
	z"/>
<path class="st2" d="M540.3,108.5c-0.5,0-1,0.6-1,1.3c0,0.7,0.4,1.3,1,1.3c0.5,0,1-0.6,1-1.3C541.2,109.1,540.8,108.5,540.3,108.5z"
	/>
<path class="st2" d="M542.3,102.7c-0.5,0-0.9,0.6-0.9,1.3c0,0.7,0.5,1.2,1,1.2c0.5,0,0.9-0.6,0.9-1.3
	C543.3,103.2,542.8,102.7,542.3,102.7z"/>
<path class="st2" d="M545.1,100.8c-0.4,0-0.7,0.4-0.7,0.9c0,0.5,0.3,0.9,0.7,0.9c0.4,0,0.7-0.4,0.7-0.9
	C545.8,101.2,545.5,100.8,545.1,100.8z"/>
<path class="st2" d="M543.7,97.9c-0.4,0-0.7,0.4-0.7,0.9c0,0.5,0.3,0.9,0.7,0.9c0.4,0,0.7-0.4,0.7-0.9
	C544.4,98.3,544.1,97.9,543.7,97.9z"/>
<g>
	<path class="st3" d="M538.2,154.3c-1.9-1.5-0.6,1.5-0.6,1.5s1.3,2.2,1.3,3.8c0,1.6-1.7,1-2,0.7c-0.3-0.3-0.3,2-0.3,2
		s1.4-0.4,2.3-0.7c0.9-0.3,1.3,9.5,1.5,10.6c0.3,1.2,1.4,0,1.4,0S540.1,155.7,538.2,154.3z"/>
	<path class="st2" d="M539.5,147.8c-0.6-2.3-4.8-4-7.3,0.5c-2.5,4.5-2.8,13.5-0.3,17.2c2.5,3.8,4.5,3.9,6.2,2.5
		c2.3-1.9-0.6-5.1-0.3-10.4C538.1,152.3,540.6,151.9,539.5,147.8z"/>
	<g>
		<path class="st3" d="M547.2,160.2c-0.3,0.3-2,0.9-2-0.7c0-1.6,1.3-3.8,1.3-3.8s1.3-3-0.6-1.5c-1.9,1.5-3.7,17.9-3.7,17.9
			s1.1,1.2,1.4,0c0.3-1.2,0.7-10.9,1.5-10.6c0.9,0.3,2.3,0.7,2.3,0.7S547.5,159.9,547.2,160.2z"/>
		<path class="st2" d="M544.7,147.8c-1.1,4.1,1.4,4.5,1.7,9.9c0.2,5.3-2.6,8.5-0.3,10.4c1.7,1.4,3.8,1.3,6.2-2.5
			c2.5-3.8,2.2-12.7-0.3-17.2C549.5,143.8,545.3,145.5,544.7,147.8z"/>
	</g>
</g>
<g>
	<g>
		<g>
			<rect x="500.7" y="284.5" class="st7" width="7.5" height="7.9"/>
			<rect x="500.7" y="314.7" class="st7" width="7.5" height="3.9"/>
			<rect x="501.8" y="292.4" class="st2" width="5.2" height="22.2"/>
			<rect x="480.9" y="318.4" class="st7" width="47.2" height="4.4"/>
			<path class="st4" d="M480.9,319.7c-2,0-3.5,1.8-3.5,4.1c0,2.3,1.6,4.1,3.5,4.1c2,0,3.5-1.8,3.5-4.1
				C484.4,321.5,482.8,319.7,480.9,319.7z"/>
			<path class="st4" d="M528,319.7c-2,0-3.5,1.8-3.5,4.1c0,2.3,1.6,4.1,3.5,4.1c2,0,3.5-1.8,3.5-4.1
				C531.6,321.5,530,319.7,528,319.7z"/>
		</g>
		<path class="st7" d="M504.8,186.4c-12.5,0-28,8.2-28,21.6c0,13.4,8.1,62.4,8.1,62.4l41.3,0.7c0,0,5.9-49.7,5.9-61.8
			C532.1,194.7,517.3,186.4,504.8,186.4z"/>
		<path class="st2" d="M504.3,265.5c-16.3,0-29.5,0-29.5,10.2c0,5.6,13.2,10.2,29.5,10.2c16.3,0,29.5-4.6,29.5-10.2
			C533.7,265.5,520.5,265.5,504.3,265.5z"/>
	</g>
	<rect x="389.1" y="237.7" class="st2" width="78.8" height="90.1"/>
	<rect x="540.9" y="237.7" class="st2" width="19.2" height="90.1"/>
	<g>
		<g>
			<polygon class="st5" points="556.8,228.3 557,228.7 557.2,228.4 557.3,227.3 556.9,227.2 			"/>
			<polygon class="st8" points="556.6,227.7 557.5,227.8 557.8,226.4 556.6,226.3 			"/>
			<path class="st2" d="M560.2,193.7l-0.1,0c-0.6-0.1-1.2,0.5-1.3,1.2l-2.1,23.4c-0.1,0.7-0.4,8.1-0.2,8.4c0.1,0.1,1.1,0.3,1.3,0.1
				c0.2-0.2,1.3-7.7,1.4-8.2l2.1-23.4C561.4,194.4,560.9,193.8,560.2,193.7z"/>
			<path class="st3" d="M558.8,194.9l-2.1,23.4c-0.1,0.7-0.4,8.1-0.2,8.4c0.1,0.1,0.4,0.1,0.6,0.2l3-33.1l-0.1,0
				C559.5,193.6,558.9,194.1,558.8,194.9z"/>
			<path class="st7" d="M561.2,195.7l-2.6-0.3c-0.1,0-0.3,0.1-0.3,0.2c0,0.1-0.1,0.2,0.1,0.2l2.8,0.3c0.1,0,0.3-0.1,0.3-0.2
				C561.5,195.8,561.4,195.7,561.2,195.7z"/>
			<path class="st7" d="M558.1,196.2c0,0.4-0.7,8.9-0.7,9.1c0.1,0.2,0.4-0.2,0.4-0.5c0-0.4-0.1-0.6-0.1-0.6c0,0,0.7-8.1,0.7-8.1
				l0.2-0.6C558.6,195.4,558.2,195.2,558.1,196.2z"/>
		</g>
		<g>
			<g>
				<path class="st2" d="M549.6,196.4c0-0.1-0.2-0.2-0.3-0.2l-1.4,0.6c-0.1,0-0.2,0.2-0.1,0.3l0.5,1.5c0,0.1,0.2,0.2,0.3,0.2
					l1.4-0.6c0.1-0.1,0.2-0.2,0.1-0.3L549.6,196.4z"/>
				<polygon class="st9" points="558.8,229.1 558.8,225.9 557,226.7 				"/>
				<polygon class="st10" points="558.8,229.1 558.8,228.1 558.2,228.3 				"/>
				<polygon class="st3" points="548.3,198.6 557,226.7 558.8,225.9 550.1,197.9 				"/>
				<polygon class="st5" points="548.1,198.1 548.3,198.6 550.1,197.9 549.9,197.3 				"/>
				<polygon class="st2" points="549.2,198.3 557.9,226.3 558.8,225.9 550.1,197.9 				"/>
			</g>
		</g>
		<g>
			<rect x="550" y="210.1" class="st2" width="13.5" height="20"/>
			<rect x="556.7" y="210.1" class="st7" width="6.7" height="20"/>
		</g>
	</g>
	<g>
		<g>
			<path class="st7" d="M400.3,172.6c-1.6,0-3,1.5-3,3.4v26.5v3.4v6.5c0,1.9,1.3,3.4,3,3.4h38.2l-22.7-43.4H400.3z"/>
			<path class="st11" d="M450.1,172.6h-34.3l22.7,43.4h11.6c1.6,0,3-1.5,3-3.4V206h0V176C453,174.1,451.7,172.6,450.1,172.6z"/>
		</g>
		<path class="st2" d="M425,199.8c-2.8,0-5.1,2.6-5.1,5.9v19.1c0,3.3,2.3,3.9,5.1,3.9c2.8,0,5.1-0.6,5.1-3.9v-19.1
			C430.1,202.4,427.8,199.8,425,199.8z"/>
		<path class="st7" d="M436.5,223.2H420h-2.1h-4.1c-1.2,0-2.2,1.1-2.2,2.5v4.4h27.1v-4.4C438.7,224.3,437.7,223.2,436.5,223.2z"/>
	</g>
	<rect x="378.1" y="230.1" class="st3" width="193.1" height="7.6"/>
</g>
<g>
	<rect x="452.5" y="139.6" class="st2" width="22.2" height="10.7"/>
	<rect x="390.2" y="139.6" class="st2" width="22.2" height="10.7"/>
	<g>
		<rect x="464.3" y="103.4" class="st3" width="7.2" height="29.7"/>
		<rect x="464.3" y="103.4" class="st2" width="7.2" height="3.8"/>
		<rect x="464.3" y="130.2" class="st2" width="7.2" height="2.9"/>
	</g>
	<rect x="456.2" y="94.7" class="st7" width="8.1" height="38.3"/>
	<rect x="458.4" y="98.9" class="st2" width="3.7" height="27"/>
	<rect x="450.1" y="100.6" class="st2" width="6.2" height="32.4"/>
	<g>
		<rect x="419.8" y="82.7" class="st2" width="11.1" height="50.3"/>
		<polygon class="st12" points="421.4,88.5 421.4,112.6 429.4,112.6 429.4,88.5 425.4,91.7 		"/>
		<path class="st6" d="M425.4,115.9c-1.6,0-2.9,1.7-2.9,3.9c0,2.1,1.3,3.9,2.9,3.9c1.6,0,2.9-1.7,2.9-3.9
			C428.3,117.6,427,115.9,425.4,115.9z"/>
		<path class="st4" d="M425.4,116.7c-1.3,0-2.4,1.4-2.4,3.1c0,1.7,1.1,3.1,2.4,3.1s2.4-1.4,2.4-3.1
			C427.8,118.1,426.7,116.7,425.4,116.7z"/>
	</g>
	<g>
		<rect x="408.7" y="82.7" class="st7" width="11.1" height="50.3"/>
		<polygon class="st12" points="410.3,88.5 410.3,112.6 418.3,112.6 418.3,88.5 414.3,91.7 		"/>
		<path class="st6" d="M414.3,115.9c-1.6,0-2.9,1.7-2.9,3.9c0,2.1,1.3,3.9,2.9,3.9c1.6,0,2.9-1.7,2.9-3.9
			C417.2,117.6,415.9,115.9,414.3,115.9z"/>
		<path class="st4" d="M414.3,116.7c-1.3,0-2.4,1.4-2.4,3.1c0,1.7,1.1,3.1,2.4,3.1s2.4-1.4,2.4-3.1
			C416.7,118.1,415.6,116.7,414.3,116.7z"/>
	</g>
	<g>
		<rect x="397.6" y="82.7" class="st2" width="11.1" height="50.3"/>
		<polygon class="st12" points="399.2,88.5 399.2,112.6 407.1,112.6 407.1,88.5 403.2,91.7 		"/>
		<path class="st6" d="M403.2,115.9c-1.6,0-2.9,1.7-2.9,3.9c0,2.1,1.3,3.9,2.9,3.9c1.6,0,2.9-1.7,2.9-3.9
			C406.1,117.6,404.8,115.9,403.2,115.9z"/>
		<path class="st4" d="M403.2,116.7c-1.3,0-2.4,1.4-2.4,3.1c0,1.7,1.1,3.1,2.4,3.1c1.3,0,2.4-1.4,2.4-3.1
			C405.5,118.1,404.5,116.7,403.2,116.7z"/>
	</g>
	<g>
		<rect x="386.5" y="82.7" class="st7" width="11.1" height="50.3"/>
		<polygon class="st12" points="388.1,88.5 388.1,112.6 396,112.6 396,88.5 392,91.7 		"/>
		<path class="st6" d="M392,115.9c-1.6,0-2.9,1.7-2.9,3.9c0,2.1,1.3,3.9,2.9,3.9c1.6,0,2.9-1.7,2.9-3.9
			C395,117.6,393.7,115.9,392,115.9z"/>
		<path class="st4" d="M392,116.7c-1.3,0-2.4,1.4-2.4,3.1c0,1.7,1.1,3.1,2.4,3.1c1.3,0,2.4-1.4,2.4-3.1
			C394.4,118.1,393.4,116.7,392,116.7z"/>
	</g>
	<polygon class="st7" points="440.1,131.6 444,133 450.1,104.5 446.2,103 	"/>
	<rect x="378.1" y="133" class="st12" width="107.3" height="6.5"/>
</g>
<g>
	<path class="st5" d="M558.7,257.5c-9.6-27.6-13.8-52.5-26.6-57.5c-6.5-2.5-25.4-6.9-25.4-6.9l20.2,47.4c0,0,4.8,9.9,12.4,29.3
		c3.8,9.6,11.5,22.1,17.9,18.5c17.4-9.7,38-42.6,38-42.6l-13.6-18.8L558.7,257.5z"/>
	<rect x="484.3" y="317.4" class="st13" width="17.5" height="2.7"/>
	<g>
		<path class="st14" d="M492.8,188.2c-2.2-3.2-4.6-5.6-6.8-6.3l-0.5,2.5c1.3,0.3,3.6,2.4,5.6,5.3c2,3,3.7,6.8,4.3,10.7
			c0.2,1.5,0.4,3.5,0.4,5.6c0,8.7-1.7,20.1-1.7,20.1l2.2,0.4v0c0,0,1.7-11.6,1.7-20.6c0-2.3-0.1-4.3-0.4-6.1
			C496.8,195.6,494.9,191.4,492.8,188.2z"/>
	</g>
	<g>
		<path class="st15" d="M492.7,225.5c-4.4,0-8,4.2-8,9.3c0,5.1,3.6,9.3,8,9.3c4.4,0,8-4.2,8-9.3
			C500.7,229.7,497.1,225.5,492.7,225.5z"/>
		<path class="st13" d="M492.7,230.3c-2.1,0-3.9,2-3.9,4.5c0,2.5,1.7,4.5,3.9,4.5c2.1,0,3.9-2,3.9-4.5
			C496.6,232.3,494.8,230.3,492.7,230.3z"/>
	</g>
	<g>
		<polygon class="st16" points="458.2,341.3 458,370.7 487.7,370.7 488.6,340.2 		"/>
		<polygon class="st16" points="492.2,341.3 493,370.7 522.7,370.7 522.6,342.3 		"/>
		<polygon class="st17" points="476.6,194.1 449.7,205.8 449.7,323.3 528.3,323.3 528.3,205.8 502.9,195.2 		"/>
		<polygon class="st18" points="486.3,213 482.2,279.8 489.7,294.9 497.4,280.4 492.4,213 		"/>
		<path class="st19" d="M434.9,326.4c0,0-11.2,0.5-12.7,1.6c-1.5,1.1-1.4,15.1-0.5,19.8c0.9,4.7,4.7,7.9,7,7.9
			c2.3-0.1,5.6-1.2,6.7-4.1c1.1-2.8,0.1-11.3,0.1-11.3s1.5,3.7,3.4,3c1.9-0.7,1.2-5,1.2-5L434.9,326.4z"/>
		<path class="st20" d="M489.3,197.7c0,0-6.1,0.1-7.6,3.3c-3.3,7,4.6,13,4.6,13l6.1,0c0,0,6.5-5.4,4.7-10.7
			C495.6,199.1,489.3,197.7,489.3,197.7z"/>
		<g>
			<polygon class="st21" points="468.7,195.1 478.2,210.2 489.6,197.1 470.5,182.7 			"/>
			<polygon class="st21" points="488.9,197.1 500.4,210.2 509,196.1 508.1,182.7 			"/>
		</g>
		<path class="st12" d="M415.8,276.6c0,32.6,0.8,52.5,0.8,52.5l22.6-1.1c0,0-2.3-35.8-0.6-57.1c1.7-21.3,11.2-29.8,11.2-29.8
			l20.2-47.4c0,0-18.9,4.3-25.4,6.9C431.9,205.6,415.8,244.1,415.8,276.6z"/>
		<path class="st12" d="M470.4,194.1l-19.5,5l-3.8,32.3c0,0-1.8,98.3-2,139.2h45l1.6-86.2L470.4,194.1z"/>
		<polygon class="st5" points="464.7,194.1 459.6,218.3 467.8,227.6 467,234.9 491.6,284.4 469.4,189 		"/>
		<rect x="453.8" y="319" class="st13" width="17.5" height="2.7"/>
		<path class="st5" d="M527.4,199.1l-19.5-5l-21.2,90.3l0,86.2h46.5c-0.2-40.9-2-139.2-2-139.2L527.4,199.1z"/>
		<path class="st13" d="M491.8,294.1c-1,0-1.7,0.9-1.7,2c0,1.1,0.8,2,1.7,2c1,0,1.7-0.9,1.7-2C493.5,295,492.7,294.1,491.8,294.1z"
			/>
		<path class="st13" d="M491.8,315c-0.9,0-1.7,0.9-1.7,2c0,1.1,0.8,2,1.7,2c1,0,1.7-0.9,1.7-2C493.5,315.9,492.7,315,491.8,315z"/>
		<path class="st13" d="M491.9,337.3c-1,0-1.7,0.9-1.7,2c0,1.1,0.8,2,1.7,2c1,0,1.7-0.9,1.7-2C493.6,338.2,492.8,337.3,491.9,337.3z
			"/>
		<path class="st13" d="M491.9,358.2c-1,0-1.7,0.9-1.7,2c0,1.1,0.8,2,1.7,2c1,0,1.7-0.9,1.7-2C493.6,359.1,492.8,358.2,491.9,358.2z
			"/>
		<polygon class="st12" points="513.7,194.1 509,189 486.7,284.4 513.9,234.9 510.6,227.6 518.8,218.3 		"/>
		<g>
			<g>
				<g>
					<path class="st22" d="M459.6,270c-2.2,0.4-4.9,0.3-5.8-0.7c-0.6-0.5-1.3-2.7-1.6-5.6c-0.7-5.9-0.5-14.8-0.5-21.8l-1.8,0
						c0.1,7-0.2,15.9,0.5,22.1c0.4,3.1,0.9,5.5,2.2,6.9c1.9,1.8,4.9,1.5,7.2,1.2c1.9-0.3,3.4-0.8,3.4-0.8l-0.5-2
						C462.8,269.2,461.4,269.7,459.6,270z"/>
				</g>
				<g>
					<path class="st14" d="M461.6,268.5c-1.2,0.3-2,1.3-1.9,2.2c0.2,0.9,1.3,1.4,2.5,1.1c1.2-0.3,2-1.3,1.9-2.2
						C463.9,268.7,462.8,268.2,461.6,268.5z"/>
				</g>
			</g>
			<g>
				<g>
					<path class="st22" d="M477.3,237.5l-1.7,0.5c1.5,6.8,3.8,15.4,4.5,21.2c0.4,2.9,0.2,5.2-0.3,5.9c-0.7,1.3-3.3,2.2-5.4,2.5
						c-1.8,0.3-3.2,0.3-3.2,0.3l0,2.1c0,0,1.6,0,3.5-0.3c2.3-0.4,5.2-1.1,6.7-3.3c1-1.7,0.9-4.2,0.6-7.4
						C481.1,252.9,478.8,244.3,477.3,237.5z"/>
				</g>
				<g>
					<path class="st14" d="M472.1,266.9c-1.2,0.1-2.2,0.9-2.1,1.9c0,0.9,1.1,1.6,2.3,1.6c1.2-0.1,2.2-0.9,2.1-1.9
						C474.3,267.5,473.3,266.8,472.1,266.9z"/>
				</g>
			</g>
			<g>
				<path class="st14" d="M461.3,219.9c-8,1.3-12.9,11.8-11.6,23.1l2.3-0.4c-0.6-5.1,0.2-10,2-13.6c1.8-3.6,4.4-6,7.6-6.5
					c3.1-0.5,6.2,1,8.8,4c2.5,3,4.5,7.4,5,12.5l2.3-0.4C476.4,227.3,469.3,218.7,461.3,219.9z"/>
			</g>
		</g>
		<g>
			<path class="st14" d="M463.6,189.9c-2.2,3.2-4,7.4-4.7,11.8c-0.3,1.7-0.4,3.5-0.4,5.3c0,7,1.8,13.3,1.8,13.3l2.1-0.8h0
				c0,0-0.4-1.5-0.8-3.8c-0.4-2.3-0.8-5.5-0.8-8.7c0-1.6,0.1-3.2,0.4-4.8c0.6-3.9,2.3-7.7,4.3-10.7c2-3,4.3-5,5.6-5.3l-0.5-2.5
				C468.2,184.3,465.8,186.6,463.6,189.9z"/>
		</g>
		<g>
			<path class="st19" d="M449.3,139.3c-3.9,1.3-3,8-3,10.5c0,2.5,3.2,11.3,5.4,12.3c5.5,2.5,5.5-6.8,5.5-6.8v-10.7
				C457.2,144.6,453.2,138.1,449.3,139.3z"/>
			<path class="st19" d="M527.8,139.5c-3.9-1.3-7.9,5.2-7.9,5.2v10.7c0,0,0,9.5,5.5,6.8c2.1-1.1,5.4-9.8,5.4-12.3
				C530.8,147.4,531.7,140.7,527.8,139.5z"/>
			<path class="st19" d="M498.3,92.4l-19.1,0c-13.9,0-25.2,17-25.2,37.9l0,28.8c0,20.9,18.9,35.6,25.1,37.9c6.6,2.4,13,2.1,19.1,0
				c6.6-2.2,25.2-17,25.2-37.9l0-28.8C523.5,109.4,512.2,92.4,498.3,92.4z"/>
			<path class="st23" d="M454,146.6c2.6-2.4,9-42.7,9.3-44.8l-11,4C452.3,105.9,451.8,148.7,454,146.6z"/>
			<path class="st23" d="M515.3,104.4c0,0,6.5,41.2,8.5,43.2c2,2,1.5-36.8,1.5-36.8L515.3,104.4z"/>
			<g>
				<path class="st10" d="M473.2,143.8c-2.3,0-4.1,2.1-4.1,4.8c0,2.6,1.8,4.8,4.1,4.8c2.3,0,4.1-2.1,4.1-4.8
					C477.4,146,475.5,143.8,473.2,143.8z"/>
				<path class="st10" d="M504.6,143.9c-2.3,0-4.1,2.1-4.1,4.8c0,2.6,1.8,4.8,4.1,4.8c2.3,0,4.1-2.1,4.1-4.8
					C508.8,146,506.9,143.9,504.6,143.9z"/>
				<g>
					<path class="st23" d="M515.1,136c-4.8-3.7-14-2.4-15.4-2.3c-1.2,0.1-3.7,1.4-3.6,2.8c0.1,1.4,4.4,2.5,5.6,2.3
						c4.7-0.5,9-1,15.5,0.7C518.5,139.9,516.1,136.8,515.1,136z"/>
				</g>
				<g>
					<path class="st23" d="M478.7,133.9c-1.4-0.2-10.6-1.5-15.4,2.3c-1,0.8-3.4,3.9-2.2,3.6c6.7-2,10.9-1.2,15.5-0.7
						c1.2,0.1,5.5-0.9,5.6-2.3C482.5,135.3,480,134.1,478.7,133.9z"/>
				</g>
			</g>
			<g>
				<path class="st24" d="M476.3,174c2,4.8,5,12.6,13.9,12.6c9.4,0,15.2-16.6,15.2-16.6C493.5,176.6,486.8,177.4,476.3,174z"/>
				<path class="st12" d="M478.6,174.7c0.7,2.8,4.2,4,11.2,3.4c9.3-0.8,11.3-3.4,12.5-6.4C494.8,175.7,484.6,176.2,478.6,174.7z"/>
				<path class="st25" d="M490.1,181.8c0,0-1.8-1.6-3.8-1.6c-2.1,0-6,1.5-6,1.5c1.8,2.9,5.1,4.9,9.7,4.9c5.8,0,9.3-5.4,9.3-5.4
					s-3.6-1-6.1-1C491.5,180.2,490.1,181.8,490.1,181.8z"/>
			</g>
			<path class="st26" d="M494.2,164.1c-3.6,3.5-8.7,2.4-10.2,0c0,0,1.5,6.2,5.1,6C492.7,169.9,497.8,160.7,494.2,164.1z"/>
		</g>
		<g>
			<g>
				<path class="st27" d="M460.9,142.6"/>
				<path class="st27" d="M464.7,155.7"/>
				<path class="st27" d="M480.7,156.7"/>
				<path class="st27" d="M485.1,143.6"/>
				<path class="st28" d="M485.9,143.7"/>
				<path class="st28" d="M460.1,143.4"/>
			</g>
			<path class="st29" d="M453,137.8"/>
			<path class="st29" d="M461.6,144.7"/>
			<g>
				<path class="st27" d="M516.8,155.7"/>
				<path class="st27" d="M500.7,156.8"/>
				<path class="st27" d="M496.3,143.6"/>
				<path class="st30" d="M521.5,143.4"/>
			</g>
			<path class="st29" d="M528.6,137.8"/>
			<path class="st29" d="M519.9,144.7"/>
			<path class="st31" d="M495.5,145.2"/>
			<path class="st31" d="M490.9,143.8"/>
			<path class="st31" d="M485.9,145.5"/>
		</g>
	</g>
	<path class="st19" d="M610.7,210l-2.5,3.8c-0.6,0.9-3.7,2.6-2.4,4c1.6,1.7,3.5,1.8,4.1,1.1l4.4-5.6c0.7-0.9,1.6-2.7,0.2-4.2
		C612.9,207.3,611.3,209.2,610.7,210z"/>
	<g>
		<g>
			<rect x="539.5" y="187.8" class="st32" width="70.1" height="106.3"/>
			<rect x="544" y="193.7" class="st12" width="61" height="94.1"/>
			<path class="st33" d="M587.9,185.4h-7.7v-4.3c0-1.4-1-2.6-2.3-2.6h-6.7c-1.3,0-2.3,1.2-2.3,2.6v4.3h-7.7c-1.3,0-2.3,1.2-2.3,2.6
				v5.8c0,1.4,1,2.6,2.3,2.6h26.7c1.3,0,2.3-1.2,2.3-2.6V188C590.2,186.5,589.1,185.4,587.9,185.4z M574.5,186
				c-1.2,0-2.2-1.1-2.2-2.5c0-1.4,1-2.6,2.2-2.6c1.2,0,2.2,1.1,2.2,2.6C576.8,184.8,575.8,186,574.5,186z"/>
			<rect x="566.7" y="208.6" class="st15" width="33.7" height="1.8"/>
			<rect x="566.7" y="213.2" class="st22" width="33.7" height="1.8"/>
			<rect x="566.7" y="217.8" class="st22" width="33.7" height="1.8"/>
			<rect x="566.7" y="222.4" class="st22" width="33.7" height="1.8"/>
			<rect x="548.5" y="232.5" class="st15" width="52.3" height="1.8"/>
			<rect x="548.5" y="236.5" class="st22" width="52.3" height="1.8"/>
			<rect x="548.5" y="240.4" class="st22" width="52.3" height="1.8"/>
			<rect x="548.5" y="244.3" class="st22" width="52.3" height="1.8"/>
			<rect x="548.5" y="248.3" class="st22" width="52.3" height="1.8"/>
			<rect x="548.5" y="252.2" class="st22" width="52.3" height="1.8"/>
			<rect x="548.5" y="261.8" class="st15" width="52.3" height="1.8"/>
			<rect x="548.5" y="265.8" class="st22" width="52.3" height="1.8"/>
			<rect x="548.5" y="269.7" class="st22" width="52.3" height="1.8"/>
			<rect x="548.5" y="273.7" class="st22" width="52.3" height="1.8"/>
			<path class="st34" d="M569,181.1v4.3h-7.7c-1.3,0-2.3,1.2-2.3,2.6v5.8c0,1.4,1,2.6,2.3,2.6h13.3V186c-1.2,0-2.2-1.1-2.2-2.5
				c0-1.4,1-2.6,2.2-2.6v-2.5h-3.3C570,178.4,569,179.6,569,181.1z"/>
			<g>
				<path class="st35" d="M555.9,206.6c-4.3,0-7.8,4-7.8,9c0,4.9,3.5,9,7.8,9c4.3,0,7.8-4,7.8-9
					C563.6,210.6,560.2,206.6,555.9,206.6z"/>
				<g>
					<rect x="554.3" y="210.3" class="st12" width="3.2" height="10.5"/>
					<rect x="551.3" y="213.7" class="st12" width="9.1" height="3.7"/>
				</g>
			</g>
		</g>
	</g>
	<g>
		<path class="st19" d="M609,235.4l-0.8,1.2c-0.6,1-1.4,2.6-0.1,4c1.6,1.7,3.2-0.1,3.8-0.9l0.7-1c0.7-0.9,1.6-2.7,0.2-4.2
			C611.2,232.7,609.6,234.6,609,235.4z"/>
		<path class="st19" d="M609,227.9l-0.8,1.2c-0.6,0.9-1.4,2.6-0.1,4c1.6,1.7,3.2-0.1,3.8-0.9l0.7-1c0.7-0.9,1.6-2.7,0.2-4.2
			C611.2,225.2,609.6,227.1,609,227.9z"/>
		<path class="st19" d="M609,220.4l-0.8,1.2c-0.6,1-1.4,2.6-0.1,4c1.6,1.7,3.2-0.1,3.8-0.9l0.7-1c0.7-0.9,1.6-2.7,0.2-4.2
			C611.2,217.7,609.6,219.6,609,220.4z"/>
	</g>
</g>
<g>
	<path class="st23" d="M458.4,125.9c0,0,2.2-10.7,8-10.6c5.8,0.1,39,0,39,0s8.6-0.6,12.6,5.5c1.8,2.8,1.9,7.9,1.9,7.9l5.4-0.2
		c0,0,0.2-21.5,0-25c-0.4-5.8-16.9-16.7-38-16c-9.8,0.3-35.2,2.8-35.1,17.9c0,6.2,0.4,23.9,0.4,23.9L458.4,125.9z"/>
</g>
</svg>
